<?xml version="1.0" encoding="UTF-8" standalone="no"?>
<!-- Created with Inkscape (http://www.inkscape.org/) -->

<svg
   xmlns:dc="http://purl.org/dc/elements/1.1/"
   xmlns:cc="http://creativecommons.org/ns#"
   xmlns:rdf="http://www.w3.org/1999/02/22-rdf-syntax-ns#"
   xmlns:svg="http://www.w3.org/2000/svg"
   xmlns="http://www.w3.org/2000/svg"
   xmlns:sodipodi="http://sodipodi.sourceforge.net/DTD/sodipodi-0.dtd"
   xmlns:inkscape="http://www.inkscape.org/namespaces/inkscape"
   width="210mm"
   height="297mm"
   id="svg2"
   version="1.1"
   inkscape:version="0.48.5 r10040"
   sodipodi:docname="logo-petra.svg">
  <defs
     id="defs4" />
  <sodipodi:namedview
     id="base"
     pagecolor="#ffffff"
     bordercolor="#666666"
     borderopacity="1.0"
     inkscape:pageopacity="0.0"
     inkscape:pageshadow="2"
     inkscape:zoom="0.54163862"
     inkscape:cx="46.184214"
     inkscape:cy="526.18109"
     inkscape:document-units="px"
     inkscape:current-layer="layer1"
     showgrid="false"
     inkscape:window-width="1366"
     inkscape:window-height="768"
     inkscape:window-x="0"
     inkscape:window-y="0"
     inkscape:window-maximized="1" />
  <metadata
     id="metadata7">
    <rdf:RDF>
      <cc:Work
         rdf:about="">
        <dc:format>image/svg+xml</dc:format>
        <dc:type
           rdf:resource="http://purl.org/dc/dcmitype/StillImage" />
        <dc:title></dc:title>
      </cc:Work>
    </rdf:RDF>
  </metadata>
  <g
     inkscape:label="Capa 1"
     inkscape:groupmode="layer"
     id="layer1">
    <g
       id="g3826"
       transform="matrix(2,0,0,2,-386.94518,-398.36463)">
      <g
         transform="translate(-11.690371,0)"
         id="g3794">
        <path
           sodipodi:type="arc"
           style="fill:none;stroke:#000000;stroke-width:8.76983547;stroke-miterlimit:4;stroke-opacity:1;stroke-dasharray:none"
           id="path2985"
           sodipodi:cx="400"
           sodipodi:cy="449.50504"
           sodipodi:rx="88.571426"
           sodipodi:ry="88.571426"
           d="m 488.57143,449.50504 c 0,48.91664 -39.65478,88.57142 -88.57143,88.57142 -48.91665,0 -88.57143,-39.65478 -88.57143,-88.57142 0,-48.91665 39.65478,-88.57143 88.57143,-88.57143 48.91665,0 88.57143,39.65478 88.57143,88.57143 z"
           transform="matrix(1.1402723,0,0,1.1402723,-64.913953,-84.628021)" />
        <path
           inkscape:connector-curvature="0"
           style="fill:none;stroke:#000000;stroke-width:10;stroke-miterlimit:4;stroke-opacity:1;stroke-dasharray:none"
           d="m 304.08046,512.16199 -24.94345,43.18782 c 29.89084,26.30671 69.12414,42.26134 112.06738,42.26134 42.94011,0 82.14173,-15.95808 112.03176,-42.26134 l -24.90782,-43.18782 c -22.03436,22.78724 -52.92029,36.95195 -87.12394,36.95195 -34.20364,0 -65.08957,-14.16471 -87.12393,-36.95195 z"
           id="path2987" />
      </g>
      <g
         transform="translate(275.46496,-28.24622)"
         id="g3781">
        <path
           style="fill:none;stroke:#000000;stroke-width:10;stroke-miterlimit:4;stroke-opacity:1;stroke-dasharray:none"
           d="m 103.96875,425.4375 c -24.381643,0 -44.125,14.14022 -44.125,31.5625 0,0.17793 -0.0041,0.35402 0,0.53125 -15.723741,5.48095 -25.78125,13.8418 -25.78125,23.1875 0,16.50763 31.327856,29.875 69.96875,29.875 38.64089,0 69.96875,-13.36737 69.96875,-29.875 0,-9.37213 -10.10583,-17.76981 -25.90625,-23.25 0.003,-0.15668 0.0312,-0.31153 0.0312,-0.46875 0,-17.42228 -19.77461,-31.5625 -44.15625,-31.5625 z"
           id="path3767"
           inkscape:connector-curvature="0" />
        <rect
           style="fill:#ffffff;fill-opacity:1;stroke:none"
           id="rect3769"
           width="108.51762"
           height="42.271397"
           x="49.842396"
           y="490.21567" />
        <path
           sodipodi:type="arc"
           style="fill:none;stroke:#000000;stroke-width:10;stroke-miterlimit:4;stroke-opacity:1;stroke-dasharray:none"
           id="path3763"
           sodipodi:cx="74.448135"
           sodipodi:cy="500.31033"
           sodipodi:rx="18.927492"
           sodipodi:ry="18.927492"
           d="m 93.375628,500.31033 c 0,10.45337 -8.474127,18.9275 -18.927493,18.9275 -10.453365,0 -18.927492,-8.47413 -18.927492,-18.9275 0,-10.45336 8.474127,-18.92749 18.927492,-18.92749 10.453366,0 18.927493,8.47413 18.927493,18.92749 z"
           transform="translate(2.4793568,2.1243572)" />
        <path
           d="m 93.375628,500.31033 c 0,10.45337 -8.474127,18.9275 -18.927493,18.9275 -10.453365,0 -18.927492,-8.47413 -18.927492,-18.9275 0,-10.45336 8.474127,-18.92749 18.927492,-18.92749 10.453366,0 18.927493,8.47413 18.927493,18.92749 z"
           sodipodi:ry="18.927492"
           sodipodi:rx="18.927492"
           sodipodi:cy="500.31033"
           sodipodi:cx="74.448135"
           id="path3765"
           style="fill:none;stroke:#000000;stroke-width:10;stroke-miterlimit:4;stroke-opacity:1;stroke-dasharray:none"
           sodipodi:type="arc"
           transform="translate(56.675224,2.1243572)" />
        <path
           sodipodi:type="arc"
           style="fill:#ffffff;fill-opacity:1;stroke:#000000;stroke-width:10;stroke-miterlimit:4;stroke-opacity:1;stroke-dasharray:none"
           id="path3779"
           sodipodi:cx="114.82678"
           sodipodi:cy="353.30682"
           sodipodi:rx="18.296576"
           sodipodi:ry="18.296576"
           d="m 114.82678,335.01025 c 10.10492,0 18.29658,8.19165 18.29658,18.29657 l -18.29658,0 z"
           sodipodi:start="4.712389"
           sodipodi:end="6.2831853"
           transform="matrix(1,0,0,0.81378433,1.4033763e-8,170.52338)" />
      </g>
      <g
         transform="translate(323.02919,-114.82678)"
         id="g3822">
        <path
           sodipodi:type="arc"
           style="fill:none;stroke:#000000;stroke-width:10;stroke-linejoin:round;stroke-miterlimit:4;stroke-opacity:1;stroke-dasharray:none"
           id="path3800"
           sodipodi:cx="57.728851"
           sodipodi:cy="487.37656"
           sodipodi:rx="14.195619"
           sodipodi:ry="14.195619"
           d="m 44.389333,482.52137 c 2.681446,-7.36721 10.827493,-11.16578 18.194706,-8.48433 3.943067,1.43516 7.049172,4.54126 8.484331,8.48433"
           sodipodi:start="3.4906585"
           sodipodi:end="5.9341195"
           sodipodi:open="true"
           transform="translate(-1.2618328,10.094662)" />
        <path
           sodipodi:open="true"
           sodipodi:end="5.9341195"
           sodipodi:start="3.4906585"
           d="m 44.389333,482.52137 c 2.681446,-7.36721 10.827493,-11.16578 18.194706,-8.48433 3.943067,1.43516 7.049172,4.54126 8.484331,8.48433"
           sodipodi:ry="14.195619"
           sodipodi:rx="14.195619"
           sodipodi:cy="487.37656"
           sodipodi:cx="57.728851"
           id="path3820"
           style="fill:none;stroke:#000000;stroke-width:5;stroke-linejoin:round;stroke-miterlimit:4;stroke-opacity:1;stroke-dasharray:none"
           sodipodi:type="arc"
           transform="matrix(2,0,0,2,-58.990684,-477.84922)" />
      </g>
    </g>
  </g>
</svg>
